# AST/ASF file generated using VICON BodyLanguage
# -----------------------------------------------
:version 1.10
:name VICON
:units
  mass 1.0
  length 0.45
  angle deg
:documentation
   .ast/.asf automatically generated from VICON data using
   VICON BodyBuilder and BodyLanguage model FoxedUp or BRILLIANT.MOD
:root
   order TX TY TZ RX RY RZ
   axis XYZ
   position 0 0 0  
   orientation 0 0 0 
:bonedata
  begin
     id 1 
     name lhipjoint
     direction 0.711131 -0.61297 0.344326 
     length 2.29162 
     axis 0 0 0  XYZ
  end
  begin
     id 2 
     name lfemur
     direction 0.34202 -0.939693 0  
     length 6.71424  
     axis 0 0 20  XYZ
    dof rx ry rz
    limits (-160.0 20.0)
           (-70.0 70.0)
           (-60.0 70.0)
  end
  begin
     id 3 
     name ltibia
     direction 0.34202 -0.939693 0   
     length 6.7087   
     axis 0 0 20   XYZ
    dof rx
    limits (-10.0 170.0)
  end
  begin
     id 4 
     name lfoot
     direction 0.0230374 -0.0632947 0.997729   
     length 1.56743   
     axis -90 7.62852e-016 20   XYZ
    dof rx rz
    limits (-45.0 90.0)
           (-70.0 20.0)
  end
  begin
     id 5 
     name ltoes
     direction 1.53585e-011 -4.21885e-011 1   
     length 0.802914   
     axis -90 7.62852e-016 20   XYZ
    dof rx
    limits (-90.0 20.0)
  end
  begin
     id 6 
     name rhipjoint
     direction -0.733192 -0.592884 0.333043   
     length 2.36925  
     axis 0 0 0  XYZ 
  end
  begin
     id 7 
     name rfemur
     direction -0.34202 -0.939693 0   
     length 6.67027   
     axis 0 0 -20   XYZ
    dof rx ry rz
    limits (-160.0 20.0)
           (-70.0 70.0)
           (-70.0 60.0)
  end
  begin
     id 8 
     name rtibia
     direction -0.34202 -0.939693 0   
     length 6.6862   
     axis 0 0 -20   XYZ
    dof rx
    limits (-10.0 170.0)
 end
 begin
     id 9 
     name rfoot
     direction -0.0949739 -0.260939 0.960672   
     length 1.67698  
     axis -90 -7.62852e-016 -20   XYZ
    dof rx rz
    limits (-45.0 90.0)
           (-20.0 70.0)
  end
  begin
     id 10 
     name rtoes
     direction -1.5353e-011 -4.21868e-011 1   
     length 0.846298   
     axis -90 -7.62852e-016 -20   XYZ
    dof rx
    limits (-90.0 20.0)
  end
  begin
     id 11 
     name lowerback
     direction -0.0206828 0.999785 -0.00109866   
     length 2.04382   
     axis 0 0 0   XYZ
    dof rx ry rz
    limits (-20.0 45.0)
           (-30.0 30.0)
           (-30.0 30.0)
  end
  begin
     id 12 
     name upperback
     direction -0.0105003 0.999727 -0.0208904   
     length 2.04538   
     axis 0 0 0   XYZ
    dof rx ry rz
    limits (-20.0 45.0)
           (-30.0 30.0)
           (-30.0 30.0)
  end
  begin
     id 13 
     name thorax
     direction -0.000416255 0.999808 -0.0196023   
     length 2.0399   
     axis 0 0 0   XYZ
    dof rx ry rz
    limits (-20.0 45.0)
           (-30.0 30.0)
           (-30.0 30.0)
  end
  begin
     id 14 
     name lowerneck
     direction 0.0627861 0.989205 0.13241   
     length 1.46207   
     axis 0 0 0   XYZ
    dof rx ry rz
    limits (-20.0 45.0)
           (-30.0 30.0)
           (-30.0 30.0)
  end
  begin
     id 15 
     name upperneck
     direction 0.00627179 0.994526 0.104303   
     length 1.41419   
     axis 0 0 0   XYZ
    dof rx ry rz
    limits (-20.0 45.0)
           (-30.0 30.0)
           (-30.0 30.0)
  end
  begin
     id 16
     name head
     direction -0.00443838 0.999688 0.0245968  
     length 1.50718  
     axis 0 0 0   XYZ
    dof rx ry rz
    limits (-20.0 45.0)
           (-30.0 30.0)
           (-30.0 30.0)
  end
  begin
     id 17 
     name lclavicle
     direction 0.758742 0.650995 -0.0227258  
     length 2.86888  
     axis 0 0 0   XYZ
    dof ry rz
    limits (-20.0 10.0)
           (0.0 20.0)
  end
  begin
     id 18 
     name lhumerus
     direction 1 -4.48962e-011 1.06664e-027   
     length 4.65776   
     axis -180 -30 -90   XYZ
    dof rx ry rz
    limits (-60.0 90.0)
           (-90.0 90.0)
           (-90.0 90.0)
  end
  begin
     id 19
     name lradius
     direction 1 -4.48968e-011 1.40404e-026   
     length 3.55539   
     axis -180 -30 -90   XYZ
    dof rx
    limits (-10.0 170.0)
  end
  begin
     id 20
     name lwrist
     direction 1 -4.48976e-011 3.32647e-026   
     length 1.77769   
     axis -2.20186e-014 90 90   XYZ
    dof ry
    limits (-180.0 0.0)
 end
  begin
     id 21 
     name lhand
     direction 1 -4.48982e-011 6.65293e-026   
     length 0.707264   
     axis -4.24514e-014 90 90   XYZ
    dof rx rz
    limits (-90.0 90.0)
           (-45.0 45.0)
  end
  begin
     id 22 
     name lfingers
     direction 1 -4.48966e-011 1.33059e-025   
     length 0.570215   
     axis -8.49028e-014 90 90   XYZ
    dof rx
    limits (0.0 90.0)
  end
  begin
     id 23
     name lthumb
     direction 0.707107 -6.3493e-011 0.707107   
     length 0.818718   
     axis -90 45 2.85299e-015   XYZ
    dof rx rz
    limits (-45.0 45.0)
           (-45.0 45.0)
  end
  begin
     id 24 
     name rclavicle
     direction -0.870343 0.482028 -0.100759   
     length 3.2251  
     axis 0 0 0   XYZ 
    dof ry rz
    limits (-10.0 20.0)
           (-20.0 0.0)
  end
  begin
     id 25 
     name rhumerus
     direction -1 -4.48974e-011 -9.45849e-028  
     length 4.71925   
     axis -180 30 90   XYZ
    dof rx ry rz
    limits (-90.0 60.0)
           (-90.0 90.0)
           (-90.0 90.0)
  end
  begin
     id 26 
     name rradius
     direction -1 -4.48965e-011 1.17607e-026   
     length 3.5699   
     axis -180 30 90   XYZ
    dof rx
    limits (-10.0 170.0)
  end
  begin
     id 27 
     name rwrist
     direction -1 -4.48968e-011 3.32647e-026   
     length 1.78495   
     axis -2.20186e-014 -90 -90   XYZ
    dof ry
    limits (-180.0 0.0)
  end
  begin
     id 28
     name rhand
     direction -1 -4.48995e-011 6.65293e-026   
     length 0.507757   
     axis -4.24514e-014 -90 -90   XYZ
    dof rx rz
    limits (-90.0 90.0)
           (-45.0 45.0)
  end
  begin
     id 29
     name rfingers
     direction -1 -4.48864e-011 1.33059e-025   
     length 0.409367   
     axis -8.49028e-014 -90 -90   XYZ
    dof rx
    limits (0.0 90.0)
  end
  begin
     id 30
     name rthumb
     direction -0.707107 -6.3494e-011 0.707107   
     length 0.587771   
     axis -90 -45 -2.85299e-015   XYZ
    dof rx rz
    limits (-45.0 45.0)
           (-45.0 45.0)
  end
:hierarchy
  begin
    root lhipjoint rhipjoint lowerback
    lhipjoint lfemur
    lfemur ltibia
    ltibia lfoot
    lfoot ltoes
    rhipjoint rfemur
    rfemur rtibia
    rtibia rfoot
    rfoot rtoes
    lowerback upperback
    upperback thorax
    thorax lowerneck lclavicle rclavicle
    lowerneck upperneck
    upperneck head
    lclavicle lhumerus
    lhumerus lradius
    lradius lwrist
    lwrist lhand lthumb
    lhand lfingers
    rclavicle rhumerus
    rhumerus rradius
    rradius rwrist
    rwrist rhand rthumb
    rhand rfingers
  end

#!OML:ASF E:\Steps\Project 1\Capture day 1\Session 2\Subject.ASF
:FULLY-SPECIFIED
:DEGREES
1
root 16.5903 19.6822 20.6843 -152.83 -3.84674 177.759
lowerback -30.401 -2.00404 -6.56304
upperback -1.44154 -1.07846 0.0590128
thorax 14.4332 -1.1967 3.12113
lowerneck -5.89022 -1.02503 -1.03321
upperneck 2.40772 -1.37686 1.92551
head 1.77671 -0.656034 0.734761
rclavicle 1.96797e-014 5.96354e-016
rhumerus -38.6039 -22.3166 -74.9468
rradius 30.5093
rwrist -0.770708
rhand -7.75253 -51.149
rfingers 7.12502
rthumb 18.1469 -80.3224
lclavicle 1.96797e-014 5.96354e-016
lhumerus -32.5214 7.48314 78.7926
lradius 21.4935
lwrist -6.58192
lhand -19.5941 -12.2457
lfingers 7.12502
lthumb 6.73169 17.6273
rfemur -22.9784 5.74508 20.2446
rtibia 5.25745
rfoot -18.4926 -4.94556
rtoes -22.5697
lfemur -24.8311 -7.4379 -21.7852
ltibia 8.37304
lfoot -7.5109 1.3365
ltoes -35.2217
2
root 16.5924 19.6819 20.6871 -152.823 -3.85902 177.818
lowerback -30.3969 -1.99893 -6.53015
upperback -1.46562 -1.09063 0.0804668
thorax 14.405 -1.20065 3.12187
lowerneck -5.82191 -1.01279 -0.988468
upperneck 2.37219 -1.36281 1.90073
head 1.75194 -0.649624 0.719815
rclavicle 1.74185e-014 -1.09332e-014
rhumerus -38.5943 -22.2775 -74.9947
rradius 30.5438
rwrist -0.812446
rhand -7.84314 -51.5083
rfingers 7.12502
rthumb 18.0598 -80.6899
lclavicle 1.74185e-014 -1.09332e-014
lhumerus -32.5451 7.30323 78.8637
lradius 21.5724
lwrist -6.38152
lhand -19.6554 -12.2798
lfingers 7.12502
lthumb 6.67244 17.5951
rfemur -22.9996 5.92347 20.2789
rtibia 5.26399
rfoot -18.0307 -5.13138
rtoes -23.2632
lfemur -24.8702 -7.40224 -21.6978
ltibia 8.38991
lfoot -7.01872 1.34731
ltoes -30.6431
3
root 16.594 19.6806 20.689 -152.815 -3.8705 177.84
lowerback -30.393 -1.99204 -6.49714
upperback -1.46916 -1.09292 0.0744582
thorax 14.399 -1.19932 3.09665
lowerneck -5.85365 -1.00409 -0.952547
upperneck 2.37069 -1.35363 1.88988
head 1.75648 -0.644936 0.710474
rclavicle -1.46604e-015 1.53064e-014
rhumerus -38.6124 -22.0229 -75.1626
rradius 30.7106
rwrist -1.16908
rhand -7.90023 -51.4601
rfingers 7.12502
rthumb 18.0048 -80.6467
lclavicle -1.46604e-015 1.53064e-014
lhumerus -32.4916 7.09049 78.9212
lradius 21.6123
lwrist -6.1331
lhand -19.7845 -12.2582
lfingers 7.12502
lthumb 6.54789 17.6206
rfemur -23.077 5.90745 20.311
rtibia 5.38879
rfoot -17.2962 -5.07063
rtoes -23.6179
lfemur -24.8877 -7.47468 -21.6368
ltibia 8.37334
lfoot -7.03806 1.43049
ltoes -30.6273
4
root 16.5945 19.6794 20.6889 -152.824 -3.87454 177.865
lowerback -30.4499 -1.99033 -6.48517
upperback -1.43557 -1.08854 0.0972608
thorax 14.4642 -1.19798 3.11585
lowerneck -5.82976 -1.04783 -0.983042
upperneck 2.33499 -1.41109 1.92701
head 1.74228 -0.673421 0.725503
rclavicle -6.70898e-016 -1.55052e-014
rhumerus -38.634 -21.7573 -75.2744
rradius 30.9009
rwrist -1.48486
rhand -7.86868 -51.2868
rfingers 7.12502
rthumb 18.0352 -80.4706
lclavicle -6.70898e-016 -1.55052e-014
lhumerus -32.4307 6.97596 79.0215
lradius 21.7041
lwrist -5.94472
lhand -19.9522 -12.0481
lfingers 7.12502
lthumb 6.38597 17.8356
rfemur -23.1145 5.52012 20.432
rtibia 5.48688
rfoot -18.5912 -4.5681
rtoes -21.1688
lfemur -24.8831 -7.47337 -21.6095
ltibia 8.37468
lfoot -7.52618 1.40925
ltoes -35.0522
5
root 16.5949 19.6786 20.6905 -152.821 -3.86648 177.823
lowerback -30.5175 -1.98999 -6.54709
upperback -1.42919 -1.06158 0.0837365
thorax 14.4986 -1.19147 3.14366
lowerneck -5.68213 -1.08412 -1.00802
upperneck 2.3135 -1.46135 2.01184
head 1.71108 -0.697566 0.755205
rclavicle -8.29926e-015 3.57812e-015
rhumerus -38.6832 -21.7058 -75.3032
rradius 30.9698
rwrist -1.53138
rhand -7.87611 -51.2669
rfingers 7.12502
rthumb 18.028 -80.4514
lclavicle -8.29926e-015 3.57812e-015
lhumerus -32.4344 6.8522 79.0837
lradius 21.8181
lwrist -5.81572
lhand -19.9215 -11.9343
lfingers 7.12502
lthumb 6.41565 17.9485
rfemur -23.1321 5.25506 20.435
rtibia 5.48408
rfoot -18.2954 -4.31099
rtoes -22.7652
lfemur -24.904 -7.43681 -21.6843
ltibia 8.40837
lfoot -7.09399 1.354
ltoes -30.997
6
root 16.5957 19.6784 20.6943 -152.808 -3.87886 177.736
lowerback -30.5326 -2.03996 -6.64322
upperback -1.44813 -1.09812 0.0878816
thorax 14.487 -1.21501 3.18452
lowerneck -5.56667 -1.06229 -1.05804
upperneck 2.33363 -1.42888 2.02201
head 1.69716 -0.681693 0.768326
rclavicle -1.18525e-014 -2.04748e-014
rhumerus -38.6694 -21.6277 -75.3122
rradius 30.953
rwrist -1.52431
rhand -7.89936 -51.236
rfingers 7.12502
rthumb 18.0057 -80.4225
lclavicle -1.18525e-014 -2.04748e-014
lhumerus -32.4921 6.85248 79.1113
lradius 21.9183
lwrist -5.77346
lhand -19.7166 -11.9712
lfingers 7.12502
lthumb 6.61344 17.9055
rfemur -23.1683 5.22872 20.3263
rtibia 5.49124
rfoot -17.6428 -4.33006
rtoes -23.684
lfemur -24.9574 -7.44154 -21.7962
ltibia 8.4636
lfoot -7.10584 1.34698
ltoes -31.5695
7
root 16.5962 19.6788 20.6968 -152.832 -3.92913 177.736
lowerback -30.5234 -2.04079 -6.63637
upperback -1.44504 -1.10167 0.094874
thorax 14.4872 -1.21581 3.18737
lowerneck -5.57217 -1.05232 -1.04253
upperneck 2.3387 -1.41643 2.01398
head 1.6993 -0.675471 0.763528
rclavicle -1.76421e-015 -1.15295e-014
rhumerus -38.6235 -21.735 -75.2784
rradius 30.9065
rwrist -1.50187
rhand -7.95595 -51.3668
rfingers 7.12502
rthumb 17.9512 -80.5584
lclavicle -1.76421e-015 -1.15295e-014
lhumerus -32.5187 6.79538 79.1607
lradius 22.039
lwrist -5.75335
lhand -19.9584 -12.1064
lfingers 7.12502
lthumb 6.38002 17.7775
rfemur -23.1097 5.24443 20.3274
rtibia 5.4236
rfoot -18.6977 -4.35311
rtoes -20.8692
lfemur -24.9766 -7.46303 -21.7804
ltibia 8.50395
lfoot -7.5507 1.31055
ltoes -35.8494
8
root 16.5974 19.6794 20.7 -152.875 -3.95231 177.715
lowerback -30.5144 -2.03732 -6.62485
upperback -1.42906 -1.09587 0.0783486
thorax 14.5008 -1.21155 3.16583
lowerneck -5.51818 -1.05721 -1.0557
upperneck 2.34152 -1.42334 2.04272
head 1.69121 -0.678608 0.774749
rclavicle 9.88954e-015 -5.1684e-015
rhumerus -38.5444 -21.8962 -75.273
rradius 30.8373
rwrist -1.37881
rhand -7.92721 -51.312
rfingers 7.12502
rthumb 17.9789 -80.501
lclavicle 9.88954e-015 -5.1684e-015
lhumerus -32.5333 6.77893 79.1886
lradius 22.1439
lwrist -5.78309
lhand -20.4213 -12.3993
lfingers 7.12502
lthumb 5.93307 17.4976
rfemur -23.0561 5.37424 20.27
rtibia 5.40045
rfoot -18.3791 -4.51035
rtoes -22.0384
lfemur -24.9729 -7.48064 -21.7815
ltibia 8.53463
lfoot -7.10152 1.23373
ltoes -30.6251
9
root 16.6006 19.68 20.7051 -152.871 -3.9452 177.639
lowerback -30.489 -2.0917 -6.79705
upperback -1.43643 -1.11704 0.129954
thorax 14.4851 -1.2329 3.30709
lowerneck -5.45473 -1.08927 -1.16756
upperneck 2.39623 -1.46196 2.12735
head 1.70063 -0.696892 0.819658
rclavicle 5.09386e-015 2.5842e-015
rhumerus -38.4719 -21.9337 -75.1948
rradius 30.7895
rwrist -1.2434
rhand -7.83162 -51.1815
rfingers 7.12502
rthumb 18.0708 -80.3621
lclavicle 5.09386e-015 2.5842e-015
lhumerus -32.5346 6.79358 79.3132
lradius 22.223
lwrist -5.77847
lhand -20.4151 -12.5924
lfingers 7.12502
lthumb 5.93911 17.3044
rfemur -23.1182 5.7038 20.0949
rtibia 5.48534
rfoot -17.7361 -4.83742
rtoes -22.4378
lfemur -25.0209 -7.48615 -21.848
ltibia 8.57804
lfoot -7.06182 1.21219
ltoes -30.8996
10
root 16.6031 19.68 20.7078 -152.86 -3.96321 177.636
lowerback -30.4118 -2.09349 -6.7707
upperback -1.50939 -1.14331 0.103511
thorax 14.3669 -1.24129 3.25453
lowerneck -5.33058 -1.07658 -1.19225
upperneck 2.47097 -1.44629 2.1721
head 1.70327 -0.688365 0.83893
rclavicle -2.5842e-014 7.95139e-016
rhumerus -38.5809 -21.8316 -75.2575
rradius 30.8472
rwrist -1.26473
rhand -7.78215 -51.2759
rfingers 7.12502
rthumb 18.1184 -80.4521
lclavicle -2.5842e-014 7.95139e-016
lhumerus -32.6384 6.66273 79.2983
lradius 22.3601
lwrist -5.64811
lhand -20.1685 -12.2845
lfingers 7.12502
lthumb 6.17718 17.6055
rfemur -23.1528 5.84598 20.0644
rtibia 5.51782
rfoot -18.7223 -4.99039
rtoes -20.6538
lfemur -25.0473 -7.50012 -21.8343
ltibia 8.60412
lfoot -7.45035 1.27752
ltoes -35.7566
